<svg xmlns="http://www.w3.org/2000/svg" width="170" height="170" viewBox="0 0 170 170">
  <g id="グループ_6" data-name="グループ 6" transform="translate(-458 466)">
    <rect id="長方形_1" data-name="長方形 1" width="170" height="170" transform="translate(458 -466)" fill="none" opacity="0.8"/>
    <g id="グループ_5" data-name="グループ 5" transform="translate(85 -226)">
      <g id="グループ_1" data-name="グループ 1" transform="translate(388 -240)">
        <text id="_8" data-name="8" transform="translate(0 113)" fill="#2e4052" font-size="128" font-family="HiraginoSans-W3, Hiragino Sans"><tspan x="0" y="0">8</tspan></text>
        <text id="_3" data-name="3" transform="translate(56 155)" fill="#2e4052" font-size="128" font-family="HiraginoSans-W3, Hiragino Sans"><tspan x="0" y="0">3</tspan></text>
      </g>
      <g id="グループ_4" data-name="グループ 4" transform="translate(391 -124)">
        <g id="グループ_3" data-name="グループ 3" transform="translate(6 3)">
          <path id="emoji_nature_FILL0_wght400_GRAD0_opsz48" d="M32.245,15.81,30.576,17.3a2.037,2.037,0,0,1-1.23.505,1.975,1.975,0,0,1-1.362-.373,1.707,1.707,0,0,1-.725-1.186,2.987,2.987,0,0,1,.066-1.318l.747-2.548L26.183,11.33a1.6,1.6,0,0,1-.791-.988A2.334,2.334,0,0,1,25.436,9a1.892,1.892,0,0,1,.747-1.054A2.244,2.244,0,0,1,27.457,7.6h2.152l.659-1.977a2.945,2.945,0,0,1,.725-1.164,1.8,1.8,0,0,1,2.5,0,2.945,2.945,0,0,1,.725,1.164L34.88,7.6h2.152a2.206,2.206,0,0,1,1.23.373A1.924,1.924,0,0,1,39.054,9a2.164,2.164,0,0,1,.044,1.3,1.584,1.584,0,0,1-.835,1.032l-1.889,1.054.747,2.548a2.718,2.718,0,0,1,.11,1.34,1.694,1.694,0,0,1-.725,1.164,2.215,2.215,0,0,1-1.362.351,1.936,1.936,0,0,1-1.23-.483Zm0-2.636A1.771,1.771,0,0,0,33.5,10.166a1.771,1.771,0,0,0-2.5,2.5A1.7,1.7,0,0,0,32.245,13.175ZM23.723,32.5a4.283,4.283,0,0,1-.681,4.5,5.209,5.209,0,0,1-4.327,2.13,4.88,4.88,0,0,1-2.548-.681,4.623,4.623,0,0,1-1.8-2.087,6.434,6.434,0,0,1-5.359-2.087,6.752,6.752,0,0,1-2.24-5.337,4.8,4.8,0,0,1-2.043-2.13A5.987,5.987,0,0,1,4,24.112a4.951,4.951,0,0,1,2.065-4.371,4.842,4.842,0,0,1,4.964-.154l2.636,1.054a5.739,5.739,0,0,1,2.174-2.526,6.4,6.4,0,0,1,3.141-.988V13.35h2.152V17.3a5.607,5.607,0,0,1,3.163,1.889,6.768,6.768,0,0,1,1.669,2.943h3.953v2.2H26.139a6.917,6.917,0,0,1-1.01,3.141,5.6,5.6,0,0,1-2.5,2.174ZM13.576,33.776a8.572,8.572,0,0,1,.088-2.438,13.94,13.94,0,0,1,.659-2.438,6.812,6.812,0,0,1-2.438.747A10.429,10.429,0,0,1,9.359,29.6a4.388,4.388,0,0,0,1.45,2.811,3.958,3.958,0,0,0,2.767,1.362Zm-3.251-6.721a8.548,8.548,0,0,0,3.712-.944,25.885,25.885,0,0,0,2.614-1.384L10.413,22.18a2.922,2.922,0,0,0-2.438.11,1.885,1.885,0,0,0-1.34,1.735,2.6,2.6,0,0,0,1.472,2.087,4.818,4.818,0,0,0,2.218.944Zm8.39,9.444a2.785,2.785,0,0,0,2.174-.9,1.911,1.911,0,0,0,.329-2.13L18.584,26.66q-.791,1.274-1.581,2.7a7.42,7.42,0,0,0-.791,3.624,5.315,5.315,0,0,0,.637,2.2A2.012,2.012,0,0,0,18.715,36.5Zm2.855-9.312a3.454,3.454,0,0,0,1.537-1.581,4.965,4.965,0,0,0,.4-1.977,3.825,3.825,0,0,0-3.778-3.778,4.6,4.6,0,0,0-2.043.483,3.055,3.055,0,0,0-1.472,1.581l3.822,1.494ZM14.323,28.9Z" transform="translate(-0.486 -0.436)" fill="#2e4052"/>
          <rect id="長方形_2" data-name="長方形 2" width="42" height="42" fill="none"/>
        </g>
      </g>
    </g>
  </g>
</svg>
